<?xml version="1.0" encoding="UTF-8" standalone="no"?>
<svg
   xmlns:dc="http://purl.org/dc/elements/1.1/"
   xmlns:cc="http://creativecommons.org/ns#"
   xmlns:rdf="http://www.w3.org/1999/02/22-rdf-syntax-ns#"
   xmlns:svg="http://www.w3.org/2000/svg"
   xmlns="http://www.w3.org/2000/svg"
   xmlns:sodipodi="http://sodipodi.sourceforge.net/DTD/sodipodi-0.dtd"
   xmlns:inkscape="http://www.inkscape.org/namespaces/inkscape"
   version="1.1"
   id="svg52"
   width="125.56271"
   height="135.77969"
   viewBox="0 0 125.56271 135.77969"
   sodipodi:docname="mainLogo.svg"
   inkscape:version="1.0.1 (3bc2e813f5, 2020-09-07)">
  <metadata
     id="metadata58">
    <rdf:RDF>
      <cc:Work
         rdf:about="">
        <dc:format>image/svg+xml</dc:format>
        <dc:type
           rdf:resource="http://purl.org/dc/dcmitype/StillImage" />
        <dc:title></dc:title>
      </cc:Work>
    </rdf:RDF>
  </metadata>
  <defs
     id="defs56" />
  <sodipodi:namedview
     pagecolor="#ffffff"
     bordercolor="#666666"
     borderopacity="1"
     objecttolerance="10"
     gridtolerance="10"
     guidetolerance="10"
     inkscape:pageopacity="0"
     inkscape:pageshadow="2"
     inkscape:window-width="1920"
     inkscape:window-height="1001"
     id="namedview54"
     showgrid="false"
     inkscape:pagecheckerboard="true"
     inkscape:zoom="2.2652839"
     inkscape:cx="-70.013522"
     inkscape:cy="-24.50857"
     inkscape:window-x="-9"
     inkscape:window-y="-9"
     inkscape:window-maximized="1"
     inkscape:current-layer="g60"
     fit-margin-top="0"
     fit-margin-left="0"
     fit-margin-right="0"
     fit-margin-bottom="0" />
  <g
     inkscape:groupmode="layer"
     inkscape:label="Image"
     id="g60"
     transform="translate(-86.140955,-201.34578)">
    <g
       id="g64"
       transform="matrix(0.43794935,0,0,0.41961807,62.148729,190.8412)"
       style="fill:#ec407a;fill-opacity:1">
      <path
         style="fill:#ec407a;fill-opacity:1;stroke-width:0.8"
         d="m 341.18318,186.79999 c 5e-5,-39.59999 0.0975,-55.68284 0.21664,-35.73966 0.11911,19.94319 0.11907,52.34318 -9e-5,72 -0.11915,19.65682 -0.2166,3.33966 -0.21655,-36.26034 z m -196.48523,57.4 c -0.9951,-1.26884 -0.9668,-1.29714 0.30205,-0.30204 0.77,0.60388 1.4,1.23388 1.4,1.4 0,0.65843 -0.65696,0.23464 -1.70205,-1.09796 z m 51.51727,-6.35439 c 0.77837,-0.20283 1.85837,-0.18949 2.4,0.0297 0.54162,0.21915 -0.0952,0.3851 -1.41523,0.36879 -1.32,-0.0163 -1.76315,-0.1956 -0.98477,-0.39843 z m -39.51727,-18.44561 c -0.9951,-1.26884 -0.9668,-1.29714 0.30205,-0.30204 1.3326,1.04509 1.75638,1.70204 1.09795,1.70204 -0.16612,0 -0.79612,-0.63 -1.4,-1.4 z m 117.82835,-29 c 0,-1.1 0.18159,-1.55 0.40352,-1 0.22192,0.55 0.22192,1.45 0,2 -0.22193,0.55 -0.40352,0.1 -0.40352,-1 z m -155.97034,-4.4 c 0.0163,-1.32 0.1956,-1.76315 0.39843,-0.98477 0.20283,0.77837 0.18949,1.85837 -0.0297,2.4 -0.21915,0.54162 -0.3851,-0.0952 -0.36879,-1.41523 z m 81.66817,-0.18901 c 2.10328,-0.16535 5.34328,-0.16335 7.2,0.005 1.85673,0.16777 0.13586,0.30305 -3.82414,0.30061 -3.96,-0.002 -5.47913,-0.13971 -3.37586,-0.30504 z m -42.56097,-3.07765 c 0.0384,-0.93196 0.22795,-1.12152 0.48332,-0.48333 0.2311,0.57749 0.20268,1.26749 -0.0631,1.53333 -0.26584,0.26583 -0.45491,-0.20667 -0.42017,-1.05 z M 274.5263,180.8 c 0,-1.1 0.18159,-1.55 0.40352,-1 0.22192,0.55 0.22192,1.45 0,2 -0.22193,0.55 -0.40352,0.1 -0.40352,-1 z m -65.07631,-34.14649 c 0.5775,-0.2311 1.26751,-0.20268 1.53334,0.0631 0.26583,0.26583 -0.20667,0.45491 -1.05,0.42017 -0.93196,-0.0384 -1.12152,-0.22795 -0.48334,-0.48332 z M 136,136.49795 c 0,-0.16612 0.63,-0.79612 1.4,-1.4 1.26884,-0.9951 1.29714,-0.9668 0.30204,0.30205 C 136.65695,136.7326 136,137.15638 136,136.49795 Z"
         id="path74" />
      <path
         style="fill:#ec407a;fill-opacity:1;stroke-width:0.8"
         d="m 195.79999,225.07017 c 0.55,-0.22193 1.45,-0.22193 2,0 0.55,0.22193 0.1,0.40351 -1,0.40351 -1.1,0 -1.55,-0.18158 -1,-0.40351 z m 27.4,-10.27018 c 1.0334,-1.1 2.05891,-2 2.27891,-2 0.22,0 -0.44551,0.9 -1.47891,2 -1.0334,1.1 -2.0589,2 -2.2789,2 -0.22,0 0.4455,-0.9 1.4789,-2 z m -27.4,-107.32982 c 0.55,-0.22192 1.45,-0.22192 2,0 0.55,0.22193 0.1,0.40352 -1,0.40352 -1.1,0 -1.55,-0.18159 -1,-0.40352 z"
         id="path72" />
      <path
         style="fill:#ec407a;fill-opacity:1;stroke-width:0.8"
         d="m 172,146.89795 c 0,-0.16612 0.63,-0.79612 1.4,-1.4 1.26884,-0.9951 1.29714,-0.9668 0.30204,0.30205 C 172.65695,147.1326 172,147.55638 172,146.89795 Z"
         id="path70" />
      <path
         style="fill:#ec407a;fill-opacity:1;stroke-width:0.8"
         d="m 187.8,264.27017 c 0.55,-0.22193 1.44999,-0.22193 1.99999,0 0.55,0.22193 0.1,0.40351 -0.99999,0.40351 -1.1,0 -1.55,-0.18158 -1,-0.40351 z M 55.263156,261.13333 c 0.03838,-0.93196 0.227953,-1.12152 0.483334,-0.48334 0.231097,0.5775 0.202675,1.26751 -0.06316,1.53334 -0.265834,0.26583 -0.454913,-0.20667 -0.420176,-1.05 z m -0.48005,-73.93334 c 0,-39.37999 0.09751,-55.48999 0.216682,-35.79999 0.119175,19.69 0.119175,51.90999 0,71.59999 -0.119175,19.69 -0.216682,3.58 -0.216682,-35.8 z m 193.216884,58 c 1.0334,-1.1 2.05891,-2 2.27891,-2 0.22,0 -0.44551,0.9 -1.47891,2 -1.0334,1.1 -2.0589,2 -2.2789,2 -0.22,0 0.4455,-0.9 1.4789,-2 z m -107.22311,-4.2 -5.17688,-5.4 5.4,5.17689 c 5.01575,4.80852 5.7657,5.62311 5.17688,5.62311 -0.12271,0 -2.55271,-2.43 -5.4,-5.4 z m 115.22311,-3.8 c 1.0334,-1.1 2.05891,-2 2.27891,-2 0.22,0 -0.44551,0.9 -1.47891,2 -1.0334,1.1 -2.0589,2 -2.2789,2 -0.22,0 0.4455,-0.9 1.4789,-2 z m -64.19067,-0.1658 c 0.99513,-0.19136 2.43513,-0.18409 3.2,0.0162 0.76487,0.20023 -0.0494,0.3568 -1.80933,0.34792 -1.76,-0.009 -2.3858,-0.17272 -1.39067,-0.36407 z m 7.19067,0.002 c 0.99,-0.19069 2.61,-0.19069 3.6,0 0.99,0.19068 0.18,0.34669 -1.8,0.34669 -1.98,0 -2.79,-0.15601 -1.8,-0.34669 z m 6.45,-0.78191 c 0.5775,-0.23109 1.26751,-0.20268 1.53334,0.0631 0.26583,0.26583 -0.20667,0.45491 -1.05,0.42018 -0.93196,-0.0384 -1.12152,-0.22795 -0.48334,-0.48333 z m 27.75,-13.85389 c 0.7964,-0.88 1.62799,-1.6 1.84799,-1.6 0.22,0 -0.25159,0.72 -1.04799,1.6 -0.79639,0.88 -1.62798,1.6 -1.84798,1.6 -0.22,0 0.25159,-0.72 1.04798,-1.6 z m -76.076,-3.4 -1.52399,-1.8 1.8,1.524 c 1.69155,1.43217 2.16419,2.076 1.52399,2.076 -0.15181,0 -0.96181,-0.81 -1.8,-1.8 z m 11.64868,-5.2 -4.37267,-4.6 4.6,4.37268 c 4.27354,4.06235 4.96647,4.82732 4.37267,4.82732 -0.12503,0 -2.19503,-2.07 -4.6,-4.6 z m 20.82732,-3.4 c -0.72103,-0.46596 -0.8197,-0.78039 -0.24721,-0.78775 0.52403,-0.006 1.17528,0.34775 1.44721,0.78775 0.61384,0.99323 0.3369,0.99323 -1.2,0 z m 3,0.27018 c 0.55,-0.22193 1.45,-0.22193 2,0 0.55,0.22193 0.1,0.40351 -1,0.40351 -1.1,0 -1.55,-0.18158 -1,-0.40351 z m 6.4,0 c 0.55,-0.22193 1.45,-0.22193 2,0 0.55,0.22193 0.1,0.40351 -1,0.40351 -1.1,0 -1.55,-0.18158 -1,-0.40351 z m 28.2,0.22778 c 0,-0.16612 0.63,-0.79612 1.4,-1.4 1.26885,-0.9951 1.29715,-0.9668 0.30205,0.30204 -1.04509,1.3326 -1.70205,1.75639 -1.70205,1.09796 z m 44.86316,-2.56462 c 0.0384,-0.93196 0.22795,-1.12152 0.48333,-0.48334 0.2311,0.5775 0.20268,1.26751 -0.0631,1.53334 -0.26583,0.26583 -0.45491,-0.20667 -0.42018,-1.05 z m 2.46315,-10.73334 c 0,-1.1 0.18159,-1.55 0.40352,-1 0.22192,0.55 0.22192,1.45 0,2 -0.22193,0.55 -0.40352,0.1 -0.40352,-1 z m -87.77663,-2.6 -2.34967,-2.6 2.6,2.34968 c 2.42356,2.19022 2.96771,2.85032 2.34967,2.85032 -0.13768,0 -1.30768,-1.17 -2.6,-2.6 z m 60.63592,-0.6 c 0,-1.54 0.16464,-2.17 0.36587,-1.4 0.20121,0.77 0.20121,2.03 0,2.8 -0.20123,0.77 -0.36587,0.14 -0.36587,-1.4 z m -89.65928,-0.8 c 0,-1.1 0.18158,-1.55 0.40351,-1 0.22193,0.55 0.22193,1.45 0,2 -0.22193,0.55 -0.40351,0.1 -0.40351,-1 z m 14.4,-1.6 c 0,-1.1 0.18158,-1.55 0.40351,-1 0.22193,0.55 0.22193,1.45 0,2 -0.22193,0.55 -0.40351,0.1 -0.40351,-1 z m 64,-0.8 c 0,-1.1 0.18158,-1.55 0.40351,-1 0.22193,0.55 0.22193,1.45 0,2 -0.22193,0.55 -0.40351,0.1 -0.40351,-1 z m -79.09751,-4.4 c 0.006,-2.2 0.16138,-3.00504 0.34526,-1.789 0.18389,1.21605 0.17897,3.01605 -0.0109,4 -0.18989,0.98396 -0.34034,-0.011 -0.33434,-2.211 z m 64.72715,1.6 c 0.0163,-1.32 0.1956,-1.76315 0.39844,-0.98477 0.20283,0.77837 0.18949,1.85837 -0.0297,2.4 -0.21915,0.54162 -0.3851,-0.0952 -0.3688,-1.41523 z m 53.6,-0.8 c 0.0163,-1.32 0.1956,-1.76315 0.39843,-0.98477 0.20284,0.77837 0.1895,1.85837 -0.0297,2.4 -0.21914,0.54162 -0.38509,-0.0952 -0.36879,-1.41523 z m -130.04526,0 c -0.25326,-0.66 -0.11177,-1.2 0.31441,-1.2 0.42619,0 0.7749,0.54 0.7749,1.2 0,0.66 -0.14149,1.2 -0.31441,1.2 -0.17293,0 -0.52163,-0.54 -0.7749,-1.2 z m 26.09105,-2.4 c 0.009,-1.76 0.17271,-2.38579 0.36406,-1.39067 0.19136,0.99513 0.18409,2.43513 -0.0162,3.2 -0.20023,0.76487 -0.3568,-0.0494 -0.34792,-1.80933 z m 76.72457,1.2 c 0,-1.1 0.18158,-1.55 0.40351,-1 0.22193,0.55 0.22193,1.45 0,2 -0.22193,0.55 -0.40351,0.1 -0.40351,-1 z m -38.52632,-0.8 c -0.72103,-0.46596 -0.8197,-0.78039 -0.24721,-0.78775 0.52403,-0.006 1.17528,0.34775 1.44721,0.78775 0.61384,0.99323 0.3369,0.99323 -1.2,0 z m -63.93683,-1.26666 c 0.0384,-0.93196 0.22795,-1.12152 0.48332,-0.48334 0.2311,0.5775 0.20268,1.2675 -0.0631,1.53334 -0.26584,0.26583 -0.45491,-0.20667 -0.42017,-1.05 z m 51.93683,0.0667 c 0,-0.66 0.20572,-1.2 0.45715,-1.2 0.25142,0 0.99714,0.54 1.65714,1.2 1.06667,1.06667 1.01587,1.2 -0.45714,1.2 -0.93968,0 -1.65715,-0.51954 -1.65715,-1.2 z m 24.06316,-0.0666 c 0.0384,-0.93196 0.22796,-1.12152 0.48333,-0.48333 0.2311,0.57749 0.20268,1.26749 -0.0631,1.53333 -0.26583,0.26584 -0.45491,-0.20667 -0.42017,-1.05 z m 14.63628,-0.70694 c -0.2477,-0.64549 -0.29598,-1.63549 -0.10728,-2.2 0.18869,-0.56451 0.53273,-0.0364 0.76452,1.17361 0.4526,2.36257 0.0792,2.94563 -0.65724,1.02639 z m 39.02687,-0.42642 c 0,-1.09999 0.18159,-1.54999 0.40352,-0.99999 0.22192,0.55 0.22192,1.44999 0,1.99999 -0.22193,0.55 -0.40352,0.1 -0.40352,-1 z m -92.06314,-2.06666 c 0.0384,-0.93196 0.22795,-1.12152 0.48332,-0.48333 0.2311,0.57749 0.20268,1.26749 -0.0631,1.53333 -0.26584,0.26583 -0.45491,-0.20667 -0.42017,-1.05 z M 218.29795,177 c -0.9951,-1.26885 -0.9668,-1.29715 0.30204,-0.30205 1.3326,1.04509 1.75639,1.70205 1.09796,1.70205 -0.16612,0 -0.79612,-0.63 -1.4,-1.4 z m -60.57164,-1 c 0,-1.1 0.18158,-1.55 0.40351,-1 0.22193,0.55 0.22193,1.45 0,2 -0.22193,0.55 -0.40351,0.1 -0.40351,-1 z m 75.98909,-1.4 c -0.87296,-2.04004 -0.85321,-2.08709 0.27159,-0.6471 0.66716,0.8541 1.213,1.8441 1.213,2.2 0,1.21593 -0.54266,0.64829 -1.48459,-1.5529 z m 40.74775,0.13333 c 0.0384,-0.93196 0.22795,-1.12152 0.48333,-0.48333 0.2311,0.57749 0.20268,1.26749 -0.0631,1.53333 -0.26583,0.26583 -0.45491,-0.20667 -0.42018,-1.05 z M 191.19999,166.8 c 1.0334,-1.1 2.05891,-2 2.27891,-2 0.22,0 -0.44551,0.9 -1.47891,2 -1.0334,1.1 -2.0589,2 -2.2789,2 -0.22,0 0.4455,-0.9 1.4789,-2 z m 43.89796,-9.8 c -0.9951,-1.26885 -0.9668,-1.29715 0.30204,-0.30205 1.3326,1.04509 1.75639,1.70205 1.09796,1.70205 -0.16612,0 -0.79612,-0.63 -1.4,-1.4 z M 184,157.29795 c 0,-0.16612 0.63,-0.79612 1.4,-1.4 1.26884,-0.9951 1.29714,-0.9668 0.30204,0.30205 C 184.65695,157.5326 184,157.95638 184,157.29795 Z m 77.92399,-8.69795 -1.524,-1.8 1.8,1.52399 c 0.99,0.83819 1.8,1.64819 1.8,1.8 0,0.6402 -0.64383,0.16756 -2.076,-1.52399 z M 169.6,149.29795 c 0,-0.16612 0.63,-0.79612 1.4,-1.4 1.26884,-0.9951 1.29714,-0.9668 0.30204,0.30205 -1.04509,1.3326 -1.70204,1.75638 -1.70204,1.09795 z M 254.33944,141 l -1.93945,-2.2 2.2,1.93944 c 2.05624,1.81272 2.56688,2.46056 1.93945,2.46056 -0.14329,0 -1.13329,-0.99 -2.2,-2.2 z M 160.8,141.29795 c 0,-0.16612 0.63,-0.79612 1.4,-1.4 1.26884,-0.9951 1.29714,-0.9668 0.30204,0.30205 -1.04509,1.3326 -1.70204,1.75638 -1.70204,1.09795 z M 137.6,134 c 1.0334,-1.1 2.0589,-2 2.2789,-2 0.22,0 -0.4455,0.9 -1.4789,2 -1.0334,1.1 -2.05891,2 -2.27891,2 -0.22,0 0.44551,-0.9 1.47891,-2 z m 7.6,-7.6 c 0.79639,-0.88 1.62798,-1.6 1.84798,-1.6 0.22,0 -0.25159,0.72 -1.04798,1.6 -0.7964,0.88 -1.62799,1.6 -1.84799,1.6 -0.22,0 0.25159,-0.72 1.04799,-1.6 z m 81.04999,1.05351 c 0.5775,-0.2311 1.26751,-0.20268 1.53334,0.0631 0.26583,0.26583 -0.20667,0.45491 -1.05,0.42017 -0.93196,-0.0384 -1.12152,-0.22795 -0.48334,-0.48332 z m -19.21,-11.54772 c 1.45617,-1.54829 17.23475,-1.5688 18.72,-0.0243 0.87044,0.90514 0.38786,1.003 -2.96,0.60021 -5.84185,-0.70285 -10.8182,-0.72295 -14,-0.0566 -2.3643,0.49519 -2.63816,0.41437 -1.76,-0.51935 z M 223.19999,112 c -0.66,-0.42653 -0.84,-0.7755 -0.4,-0.7755 0.44,0 1.34,0.34897 2,0.7755 0.66,0.42652 0.84,0.77549 0.4,0.77549 -0.44,0 -1.34,-0.34897 -2,-0.77549 z m -3.35,-1.34649 c 0.5775,-0.2311 1.26751,-0.20268 1.53334,0.0631 0.26583,0.26583 -0.20667,0.45491 -1.05,0.42017 -0.93196,-0.0384 -1.12152,-0.22795 -0.48334,-0.48332 z m -5.6,-1.6 c 0.5775,-0.2311 1.26751,-0.20268 1.53334,0.0631 0.26583,0.26583 -0.20667,0.45491 -1.05,0.42018 -0.93196,-0.0384 -1.12152,-0.22796 -0.48334,-0.48333 z m -4.85,-0.78334 c 0.55,-0.22192 1.45,-0.22192 2,0 0.55,0.22193 0.1,0.40352 -1,0.40352 -1.1,0 -1.55,-0.18159 -1,-0.40352 z m -7.6,-0.84317 c 1.21,-0.18331 3.19,-0.18331 4.4,0 1.21,0.18329 0.22,0.33327 -2.2,0.33327 -2.42,0 -3.41,-0.14998 -2.2,-0.33327 z m 132.53945,-5.627 -1.93945,-2.200003 2.2,1.939453 c 2.05623,1.81271 2.56687,2.46055 1.93945,2.46055 -0.1433,0 -1.1333,-0.99 -2.2,-2.2 z"
         id="path68" />
      <path
         style="fill:#ec407a;fill-opacity:1;stroke-width:0.8"
         d="m 191.78811,347.6158 c -1.51116,-0.51951 -4.51168,-1.94894 -6.66783,-3.1765 -2.15616,-1.22756 -5.90028,-3.33383 -8.32028,-4.68061 -2.42,-1.34677 -6.27271,-3.64343 -8.56157,-5.10368 -2.28887,-1.46027 -4.35253,-2.65502 -4.58591,-2.65502 -0.23339,0 -2.68068,-1.37958 -5.43844,-3.06573 -2.75774,-1.68614 -6.63408,-3.97524 -8.61408,-5.08688 -6.10036,-3.42496 -9.89687,-5.61108 -12.4,-7.14019 -1.32,-0.80636 -3.74566,-2.20045 -5.39035,-3.09798 -1.64468,-0.89754 -7.40468,-4.19008 -12.8,-7.31676 -13.15345,-7.62269 -14.55425,-8.43223 -17.80965,-10.29246 -1.540003,-0.88 -4.060003,-2.32 -5.600003,-3.2 -1.539999,-0.88 -4.149999,-2.38405 -5.799999,-3.34233 -1.65,-0.95828 -4.8,-2.77141 -7,-4.02916 -2.2,-1.25776 -4.54,-2.61961 -5.2,-3.02636 -4.293534,-2.646 -12.225759,-7.20215 -12.538906,-7.20215 -0.206459,0 -0.90736,-0.53198 -1.557558,-1.18217 -0.650198,-0.6502 -1.81094,-1.6402 -2.579427,-2.2 -2.298083,-1.67404 -4.962008,-6.69432 -5.284806,-9.95945 -0.166296,-1.68211 -0.34024,-36.29202 -0.386542,-76.91091 l -0.08418,-73.85254 2.007047,-3.99594 c 1.103876,-2.19777 2.460946,-4.42413 3.015712,-4.94746 1.969171,-1.85761 7.633816,-5.310331 25.808664,-15.730914 C 96.119997,80.618286 106.38,74.687987 108.8,73.242169 c 2.42,-1.445817 6.02,-3.529557 8,-4.630532 1.98,-1.100974 10.08,-5.778556 18,-10.394624 7.92,-4.616069 20.52,-11.910005 28,-16.208747 7.48,-4.298741 14.86,-8.542205 16.4,-9.42992 12.66541,-7.300823 16.14434,-8.394681 22.41888,-7.049032 2.27805,0.488554 6.35573,2.199162 9.06151,3.801351 2.70578,1.602189 8.3396,4.879028 12.5196,7.281864 4.18,2.402837 8.68,5.002506 10,5.777042 1.32,0.774536 7.18115,4.156254 13.02476,7.514929 5.84362,3.358676 12.04646,7.004166 13.7841,8.10109 1.73764,1.096925 3.38093,1.994408 3.65175,1.994408 0.27082,0 1.44798,0.665065 2.6159,1.477923 1.16792,0.812856 4.10349,2.569523 6.52349,3.903702 6.27615,3.46013 15.49308,8.757098 38,21.838615 1.32,0.767208 6.52943,3.781016 11.57652,6.697351 10.97013,6.338821 14.68883,9.760681 16.83177,15.488201 1.56075,4.17148 1.59326,5.99941 1.39485,78.43261 -0.20095,73.36553 -0.22111,74.20023 -1.87757,77.76159 -2.94386,6.32923 -7.50732,9.72559 -28.27454,21.04333 -2.44807,1.33414 -5.82451,3.28452 -7.5032,4.33417 -1.67869,1.04964 -4.28869,2.6091 -5.8,3.46547 -1.51131,0.85637 -3.91783,2.2317 -5.34783,3.05629 -10.73749,6.19161 -19.26074,11.06059 -23,13.13893 -2.42,1.34508 -7.1,4.04804 -10.4,6.00658 -5.83968,3.46584 -8.216,4.85009 -14,8.15523 -1.54,0.88 -3.97,2.2792 -5.4,3.10934 -4.00378,2.32425 -18.26371,10.50231 -21.4,12.27288 -1.54,0.8694 -4.78,2.77012 -7.2,4.22384 -7.02876,4.22224 -12.78112,5.21427 -18.61188,3.20975 z m 17.81188,-83.93003 c 8.675,-1.53927 24.21252,-7.42686 28.063,-10.63386 0.69464,-0.57855 1.54284,-1.05192 1.88488,-1.05192 2.06977,0 14.86055,-11.764 20.00596,-18.4 5.50655,-7.10177 12.78972,-21.83822 13.44299,-27.2 0.13403,-1.1 0.52581,-2.45 0.87064,-3 0.34483,-0.55 0.39472,-1.37576 0.11088,-1.83504 -0.28385,-0.45928 -0.0988,-1.33781 0.41115,-1.9523 0.50998,-0.61449 0.85952,-1.76872 0.77675,-2.56495 -0.0828,-0.79624 -0.0771,-1.62771 0.0126,-1.84771 0.59252,-1.45365 0.50618,-16.90027 -0.0966,-17.27277 -0.41102,-0.25403 -0.52944,-1.14836 -0.26314,-1.98739 0.26629,-0.83903 0.20005,-1.97874 -0.1472,-2.53267 -0.34727,-0.55394 -0.75445,-1.90716 -0.90487,-3.00716 -0.15041,-1.1 -2.08978,-5.78 -4.30973,-10.4 -3.5884,-7.46797 -4.84739,-9.19888 -11.34677,-15.6 -8.05988,-7.93803 -15.81453,-12.58 -25.82464,-15.45876 -6.01813,-1.73072 -5.48136,-1.67497 -16.28589,-1.6914 -9.49977,-0.0144 -11.28549,0.22456 -17.65971,2.36356 -9.59206,3.21881 -15.91635,7.13607 -23.20287,14.37182 -7.50019,7.44793 -11.43766,13.69218 -14.38645,22.81478 -0.99558,3.08 -2.10864,6.32 -2.47345,7.2 -0.36483,0.88 -0.68184,2.32 -0.70446,3.2 -0.30809,11.98063 -0.21875,16.25999 0.36742,17.59999 0.38494,0.88 0.83121,2.28021 0.99172,3.11159 1.03588,5.36563 12.23588,20.48841 15.17381,20.48841 0.52836,0 1.08066,0.27 1.22733,0.6 0.41091,0.92456 8.77134,4.84808 11.46666,5.38127 9.63563,1.90609 20.88505,0.62685 28.52287,-3.24353 9.1342,-4.62865 18.16811,-16.17538 19.65161,-25.1178 0.18067,-1.08903 0.65598,-2.37466 1.05625,-2.85696 0.40027,-0.4823 0.50029,-2.79764 0.22226,-5.14519 -0.36836,-3.11022 -0.25669,-4.11451 0.41158,-3.70149 0.89933,0.55582 0.84151,0.0381 -0.37035,-3.31629 -0.27818,-0.77 -0.61809,-2.25194 -0.75536,-3.29319 -0.53544,-4.06161 -7.91539,-12.71619 -12.70326,-14.89731 -6.57445,-2.995 -8.43171,-3.42836 -13.78398,-3.2163 -4.3305,0.17157 -6.75204,0.79244 -10.90763,2.79664 -6.16132,2.97155 -8.52167,5.47818 -12.11913,12.87016 -2.45881,5.05231 -2.98415,8.90102 -2.14467,15.71215 0.25125,2.0386 4.97025,6.3884 8.02398,7.39622 7.7807,2.56786 15.20686,-1.02546 17.78316,-8.60482 0.77838,-2.28996 1.16716,-4.20654 0.86395,-4.25908 -0.3032,-0.0526 -2.53381,-0.0245 -4.95691,0.0624 -3.3463,0.11996 -4.82883,-0.20911 -6.16569,-1.36856 -1.71176,-1.48459 -1.72257,-1.60001 -0.39437,-4.20554 1.91657,-3.75971 4.99925,-5.75401 9.57362,-6.19355 5.39471,-0.51837 11.22109,2.73429 12.62024,7.04542 0.70439,2.1704 0.78599,9.28609 0.12793,11.15534 -0.23235,0.66 -0.63755,2.18267 -0.90043,3.38371 -0.26289,1.20105 -2.01515,4.08105 -3.89392,6.4 -3.01533,3.72182 -6.19765,5.89632 -12.56175,8.5835 -1.68579,0.71181 -12.21685,0.48762 -13.4698,-0.28675 -0.57016,-0.35237 -1.24009,-0.43723 -1.48875,-0.18857 -0.74889,0.74889 -7.64775,-3.61089 -10.64145,-6.72495 -3.57095,-3.71452 -5.6,-7.47716 -5.6,-10.38456 0,-1.25837 -0.27954,-2.46072 -0.6212,-2.67188 -1.2196,-0.75376 -0.27575,-12.20529 1.34485,-16.3168 3.47943,-8.82736 6.58895,-13.1891 12.98503,-18.21415 7.04437,-5.53437 13.82161,-7.86062 23.09132,-7.92597 5.3866,-0.038 8.80848,0.36799 11.74949,1.39393 6.89387,2.40488 14.96327,8.22967 20.10307,14.51114 2.26233,2.76484 5.92517,11.85329 5.99143,14.8663 0.0384,1.74628 0.31128,3.17505 0.60638,3.17505 0.62511,0 0.44106,8.62972 -0.22181,10.4 -0.24713,0.66 -0.84455,3.54 -1.32759,6.4 -3.06873,18.1695 -21.56518,35.36642 -40.90097,38.02733 -3.29397,0.45331 -15.52165,0.46302 -18.4,0.0146 -9.17521,-1.42935 -19.81964,-7.27956 -27.20561,-14.95228 -4.511,-4.68616 -11.19439,-14.92688 -11.19439,-17.1528 0,-0.68313 -0.34287,-1.8827 -0.76192,-2.66571 -1.17541,-2.19629 -1.80546,-5.64955 -1.91047,-10.47117 -0.0527,-2.42 -0.46297,-4.66448 -0.91172,-4.98775 -0.53648,-0.38646 -0.50923,-0.59194 0.0795,-0.6 0.57383,-0.008 0.8161,-1.52077 0.67454,-4.21224 -0.80555,-15.31584 9.45753,-36.54585 23.68775,-49 9.40455,-8.23077 22.09025,-14.34561 33.14226,-15.97542 0.88,-0.12978 2.28906,-0.51957 3.13123,-0.86622 1.16093,-0.47784 1.37269,-0.37372 0.87561,0.43056 -0.52016,0.84164 -0.0927,0.93572 2.06877,0.4553 3.09227,-0.6873 8.11178,-0.67092 13.8267,0.0451 2.76296,0.34618 3.74186,0.22934 3.35279,-0.4002 -0.69283,-1.12102 0.76631,-1.14806 2.81403,-0.0522 0.86017,0.46035 1.91474,0.62019 2.34349,0.35521 1.28099,-0.7917 -7.8204,-5.12448 -14.75219,-7.02288 -5.28535,-1.4475 -8.49759,-1.76213 -17.66043,-1.72978 -6.16,0.0218 -12.46744,0.27667 -14.01655,0.56649 -5.22276,0.97713 -12.3606,2.8303 -15.96571,4.14512 -3.68138,1.34263 -15.29901,7.38133 -16.01621,8.32502 -0.22084,0.29058 -1.95641,1.58352 -3.85681,2.8732 -5.31957,3.61002 -14.5233,13.91274 -18.80388,21.0492 -5.7534,9.59193 -9.66855,19.95373 -10.65573,28.20143 -1.6168,13.50797 -1.61727,12.81677 0.0178,26.4 1.18365,9.83356 7.54943,25.02018 14.09716,33.63111 5.51877,7.25777 15.56657,16.57764 21.18637,19.65149 0.88749,0.48544 3.64971,2.01564 6.13824,3.40043 4.46246,2.48322 15.87539,6.7532 15.87539,5.93955 0,-0.23018 0.52423,0.0166 1.16496,0.54833 0.64072,0.53176 1.51585,0.74996 1.94472,0.48491 0.42887,-0.26506 1.02105,-0.0915 1.31596,0.38566 0.29491,0.47718 1.03938,0.6745 1.65439,0.43851 0.615,-0.236 1.92858,-0.115 2.91908,0.26891 1.72809,0.66979 19.66043,0.47153 23.80089,-0.26313 z"
         id="path66" />
    </g>
    <path
       style="fill:#2c5aa0;fill-opacity:1;stroke-width:0.624299"
       d=""
       id="path927" />
  </g>
</svg>
